HIERARCHY
ROOT hip
{
	OFFSET 0.000000 0.000000 0.000000 
	CHANNELS 6 Xposition Yposition Zposition Xrotation Zrotation Yrotation
	JOINT abdomen
	{
		OFFSET 0.000000 3.402643 0.000000 
		CHANNELS 3 Xrotation Zrotation Yrotation
		JOINT chest
		{
			OFFSET 0.000000 8.438565 -0.680529 
			CHANNELS 3 Xrotation Zrotation Yrotation
			JOINT neck
			{
				OFFSET 0.000000 10.207942 -0.272212 
				CHANNELS 3 Xrotation Zrotation Yrotation
				JOINT head
				{
					OFFSET 0.000000 3.130431 0.000000 
					CHANNELS 3 Xrotation Zrotation Yrotation
					End Site
					{
						OFFSET 0.000000 3.130435 0.000000 
					}
				}
			}
			JOINT lCollar
			{
				OFFSET 3.470700 6.669187 -0.816635 
				CHANNELS 3 Yrotation Zrotation Xrotation
				JOINT lShldr
				{
					OFFSET 3.198488 0.000000 0.000000 
					CHANNELS 3 Zrotation Yrotation Xrotation
					JOINT lForeArm
					{
						OFFSET 10.139888 0.000000 0.000000 
						CHANNELS 3 Yrotation Zrotation Xrotation
						JOINT lHand
						{
							OFFSET 8.370511 0.000000 0.000000 
							CHANNELS 3 Zrotation Yrotation Xrotation
							End Site
							{
								OFFSET 4.083176 0.000000 0.000000 
							}
						}
					}
				}
			}
			JOINT rCollar
			{
				OFFSET -3.470700 6.669187 -0.816635 
				CHANNELS 3 Yrotation Zrotation Xrotation
				JOINT rShldr
				{
					OFFSET -3.198488 0.000000 0.000000 
					CHANNELS 3 Zrotation Yrotation Xrotation
					JOINT rForeArm
					{
						OFFSET -10.139888 0.000000 0.000000 
						CHANNELS 3 Yrotation Zrotation Xrotation
						JOINT rHand
						{
							OFFSET -8.370511 0.000000 0.000000 
							CHANNELS 3 Zrotation Yrotation Xrotation
							End Site
							{
								OFFSET -4.083176 0.000000 0.000000 
							}
						}
					}
				}
			}
		}
	}
	JOINT lThigh
	{
		OFFSET 5.308129 -1.633274 1.361059 
		CHANNELS 3 Xrotation Zrotation Yrotation
		JOINT lShin
		{
			OFFSET -2.041588 -20.007561 0.000000 
			CHANNELS 3 Xrotation Zrotation Yrotation
			JOINT lFoot
			{
				OFFSET 0.000000 -19.190928 -1.224953 
				CHANNELS 3 Xrotation Yrotation Zrotation
				End Site
				{
					OFFSET 0.000000 -2.449906 4.627600 
				}
			}
		}
	}
	JOINT rThigh
	{
		OFFSET -5.308129 -1.633274 1.361059 
		CHANNELS 3 Xrotation Zrotation Yrotation
		JOINT rShin
		{
			OFFSET 2.041588 -20.007561 0.000000 
			CHANNELS 3 Xrotation Zrotation Yrotation
			JOINT rFoot
			{
				OFFSET 0.000000 -19.190928 -1.224953 
				CHANNELS 3 Xrotation Yrotation Zrotation
				End Site
				{
					OFFSET 0.000000 -2.449906 4.627600 
				}
			}
		}
	}
}
MOTION
Frames: 18
Frame Time: 0.016667
-1.284164 34.906998 -8.719211 -45.224442 5.665781 -3.060899 -6.906913 -2.962836 5.886668 0.000000 0.000000 0.000000 34.928032 -1.289048 -0.273588 -23.250671 3.364322 5.331978 11.797814 4.148944 23.383101 -65.688721 0.005268 -18.398678 -31.442236 -31.037104 101.038147 -11.992117 -3.773697 -62.026814 -11.703887 -14.677617 21.319521 66.429787 15.597266 74.480621 32.700172 -25.957481 61.786663 30.630623 6.108806 -80.745667 3.790977 2.563358 17.941494 50.277184 5.185781 -1.028213 1.994479 -5.700357 -13.898864 -4.404270 -12.742700 -2.610647 63.640499 1.464786 5.207704 1.254771 4.788019 7.834409 
-1.343723 34.019032 -9.368368 -43.338322 5.907644 -3.396120 -9.887757 -2.564103 5.982352 0.000000 0.000000 0.000000 35.561684 -2.412064 -0.352073 -23.435116 3.819703 5.589118 13.408916 3.755913 23.314680 -64.445549 -0.431704 -18.789778 -31.343916 -32.703857 102.207062 -11.397957 -3.742941 -62.034996 -11.254624 -15.637542 21.246300 66.842247 15.770154 74.614548 33.555008 -25.706348 62.741039 30.970947 5.573893 -80.802338 -1.756643 3.617538 18.242584 51.670765 3.823606 -1.384361 2.913465 -4.158009 -12.186610 -11.196350 -12.357614 -2.213052 67.170059 0.508186 5.356522 3.330088 4.279691 5.044174 
-1.403282 33.130939 -10.017562 -41.445511 6.168698 -3.722736 -12.866531 -2.165581 6.058834 0.000000 0.000000 0.000000 36.209312 -3.525282 -0.450170 -23.625948 4.274683 5.836822 15.021884 3.356154 23.242880 -63.208160 -0.871933 -19.195728 -31.203047 -34.358719 103.399902 -10.798885 -3.726765 -62.055122 -10.802343 -16.587034 21.177277 67.257088 15.933325 74.755936 34.408844 -25.432030 63.689835 31.309956 5.034691 -80.866966 -7.329168 4.700467 18.420765 53.090847 2.456692 -1.764116 3.796458 -2.562221 -10.531184 -17.976278 -11.941955 -1.867193 70.709656 -0.458857 5.452208 5.386824 3.669875 2.326598 
-1.463044 32.078335 -10.707913 -39.912697 6.245019 -3.949190 -15.317261 -1.679782 6.135319 0.000000 0.000000 0.000000 37.039627 -4.326008 -0.499575 -24.097734 4.643036 5.938004 16.360121 2.747189 23.308264 -61.880093 -1.214071 -19.617010 -31.617407 -35.854214 104.578049 -10.502875 -3.732566 -61.986801 -10.791958 -17.122992 21.065458 67.127419 16.304420 74.610146 35.590130 -24.911560 65.269012 31.653965 4.223385 -80.947800 -12.019622 5.779345 18.456177 52.124283 1.384702 -1.963823 4.054696 -1.568361 -10.624588 -24.426672 -11.090654 -1.246694 73.304497 -1.132497 5.524316 8.501029 3.028534 1.456901 
-1.522820 31.025524 -11.398122 -38.380127 6.331020 -4.165942 -17.765432 -1.184434 6.202466 0.000000 0.000000 0.000000 37.872990 -5.116937 -0.569375 -24.578836 5.011333 6.029735 17.698555 2.149662 23.385702 -60.548939 -1.546201 -20.047773 -32.001820 -37.347874 105.770241 -10.214731 -3.736189 -61.930023 -10.780768 -17.660793 20.967709 66.992432 16.693436 74.462479 36.766575 -24.355949 66.837196 31.999693 3.417720 -81.035355 -16.712507 6.859422 18.411268 51.142151 0.327840 -2.162853 4.350460 -0.581960 -10.744497 -30.854803 -10.193983 -0.729011 75.905678 -1.806453 5.611228 11.613878 2.328217 0.652288 
-1.599794 29.714062 -11.908145 -40.860664 6.134085 -3.025011 -15.772756 -1.456352 6.173845 0.000000 0.000000 0.000000 36.781338 -4.667770 -0.529568 -23.295132 4.357927 5.073613 16.135391 3.247296 23.188866 -61.217251 -1.492223 -19.820745 -32.986057 -38.757000 106.337326 -9.309564 -2.166755 -62.251217 -11.202712 -19.422190 20.446592 68.234657 16.255552 75.088570 38.083874 -24.642506 67.692184 32.411545 2.212518 -81.144119 -16.639288 6.629635 18.351358 46.930653 0.777452 -1.840238 3.853878 -1.420902 -10.574184 -32.547894 -10.615204 -0.775944 77.862427 -1.200525 5.888557 12.759849 0.793152 -2.181248 
-1.676765 28.402470 -12.418372 -43.340408 5.992905 -1.875429 -13.779808 -1.728298 6.145370 0.000000 0.000000 0.000000 35.691032 -4.218590 -0.499571 -21.989300 3.720947 4.100902 14.580803 4.359944 23.027370 -61.877247 -1.429937 -19.597815 -33.968632 -40.175106 106.899246 -8.408514 -0.584029 -62.548885 -11.648443 -21.178774 19.901045 69.460815 15.809834 75.695740 39.408180 -24.911558 68.545944 32.824600 0.999418 -81.265457 -16.580961 6.415178 18.269756 42.695309 1.220688 -1.543238 3.390766 -2.251295 -10.385375 -34.236713 -11.025312 -0.801304 79.826462 -0.604930 6.194037 13.843488 -0.795849 -4.968186 
-1.747855 26.949923 -13.170278 -41.543339 5.905287 -1.806426 -16.038832 -1.009531 6.280211 0.000000 0.000000 0.000000 36.570675 -5.556349 -0.588858 -22.610508 4.617913 3.958430 16.046692 2.948624 23.291132 -60.349495 -1.530969 -20.108541 -34.354477 -40.986969 107.928635 -8.081955 2.116916 -62.944851 -11.524075 -22.435947 19.672024 70.634056 15.078893 76.362358 39.586758 -25.327881 67.058090 33.353863 -2.981984 -81.472542 -21.707376 7.284059 17.927166 40.869492 0.908605 -1.528385 4.165469 -1.175272 -12.945539 -39.332260 -10.028703 -0.180036 75.782509 -1.434910 5.614947 16.812925 1.526766 -4.452958 
-1.818978 25.497223 -13.922157 -39.736717 5.817655 -1.737428 -18.284542 -0.291151 6.386785 0.000000 0.000000 0.000000 37.446999 -6.884259 -0.698895 -23.228294 5.515286 3.797441 17.524111 1.540706 23.590136 -58.812191 -1.616846 -20.614050 -34.739883 -41.799927 108.947945 -7.781123 4.820158 -63.330738 -11.397618 -23.700447 19.454029 71.783806 14.349044 77.003036 39.753082 -25.752771 65.561546 33.891090 -6.961854 -81.718666 -26.870197 8.111773 17.531523 39.041920 0.602639 -1.510887 5.017998 -0.143134 -15.447994 -44.401295 -8.974035 0.349660 71.749222 -2.322918 5.134275 19.759895 3.821597 -4.018330 
-1.929061 23.866903 -14.638708 -38.254196 5.573020 -1.932751 -20.136282 0.261990 6.474720 0.000000 0.000000 0.000000 38.228188 -7.714158 -0.769244 -24.104658 5.941792 4.114257 18.627544 0.204138 23.979258 -57.570961 -0.281606 -21.191404 -34.998550 -41.897247 110.667397 -5.121208 8.788672 -63.726006 -11.192098 -23.479359 19.578114 71.067352 12.762995 77.085777 41.755188 -26.066429 64.740623 32.618004 -13.718102 -81.365700 -31.462177 9.246163 17.141541 37.321644 0.173273 -1.506973 5.212311 1.212166 -16.623106 -48.857838 -7.713961 1.058802 67.806999 -2.538692 4.704401 20.976856 5.515387 -3.139359 
-2.039227 22.236303 -15.354980 -36.770000 5.328374 -2.128117 -21.976833 0.814969 6.543693 0.000000 0.000000 0.000000 39.011436 -8.544018 -0.839727 -24.986786 6.358044 4.432308 19.741398 -1.117351 24.388678 -56.353600 1.065197 -21.738020 -35.250359 -42.000759 112.395760 -2.453948 12.765810 -63.946594 -10.989491 -23.271624 19.714331 70.345779 11.190085 77.181198 43.761856 -26.404179 63.930351 31.255390 -20.461163 -80.840187 -36.092628 10.360777 16.638357 35.626240 -0.252008 -1.499101 5.433664 2.552104 -17.808495 -53.294777 -6.405591 1.635372 63.868702 -2.810765 4.322774 22.169029 7.218239 -2.288200 
-2.246340 20.284065 -15.747737 -39.394238 4.559510 -1.223826 -19.643187 0.388103 6.513853 0.000000 0.000000 0.000000 37.890800 -7.509132 -0.749861 -24.324711 5.704942 4.525234 16.644476 0.384050 24.017065 -59.023270 5.104212 -21.350082 -36.541077 -40.658268 115.183426 -0.121853 16.705921 -63.644890 -10.225900 -23.056463 20.083467 70.181877 8.259053 77.852036 45.311539 -26.407938 61.410427 27.543299 -27.935951 -79.064682 -36.131500 10.741653 16.761690 32.993145 0.061043 -1.268613 4.902847 1.505529 -18.677694 -52.908207 -6.278984 1.655894 60.281563 -2.059272 4.185875 19.414114 7.359724 1.312469 
-2.453403 18.331669 -16.140705 -42.030720 3.837844 -0.283221 -17.299322 -0.038814 6.464842 0.000000 0.000000 0.000000 36.774578 -6.474172 -0.668636 -23.664768 5.051994 4.617820 13.558030 1.898851 23.728163 -61.675220 9.158402 -21.148256 -37.888031 -39.369595 117.959610 2.279980 20.638296 -63.173813 -9.470162 -22.831797 20.442835 69.977173 5.333333 78.525223 46.845016 -26.468405 58.885731 23.242214 -35.281528 -76.558907 -36.176529 11.129498 16.871977 30.375460 0.393528 -1.079753 4.368670 0.524273 -19.536274 -52.520935 -6.151754 1.668493 56.683144 -1.326228 3.969291 16.633776 7.348760 4.886694 
-2.602680 16.204222 -16.771946 -40.329849 3.231745 -1.173314 -19.045404 0.737252 6.611910 0.000000 0.000000 0.000000 37.644703 -6.981894 -0.708595 -24.650686 5.077208 5.147402 14.391185 -1.005452 24.345098 -59.763710 13.042293 -22.691645 -38.647926 -38.305393 122.838463 3.758855 21.399151 -62.732212 -8.760594 -20.322367 21.149502 68.090645 3.142177 78.241898 45.950813 -25.302044 58.611404 19.537178 -38.886452 -74.552544 -41.408070 13.139225 16.462891 30.115192 0.071234 -1.131115 5.038640 0.254057 -20.188156 -57.061707 -4.726281 2.437766 52.827534 -0.369068 3.841899 16.808115 7.567882 8.295036 
-2.751927 14.076522 -17.403114 -38.631374 2.634964 -2.091674 -20.785711 1.532308 6.740822 0.000000 0.000000 0.000000 38.507069 -7.489586 -0.759540 -25.636101 5.101941 5.676980 15.250019 -3.907708 24.996504 -57.919479 16.972666 -24.124964 -39.508743 -37.293461 127.647942 5.260900 22.154104 -62.262951 -8.097171 -17.810411 21.819027 66.220047 0.929891 78.033333 45.067623 -24.134644 58.351952 15.448839 -42.386311 -72.109329 -46.717655 15.106924 15.875516 29.879988 -0.250912 -1.211108 5.679936 -0.015080 -20.825094 -61.592167 -3.262376 3.100411 48.960129 0.572811 3.652168 16.949673 7.772714 11.743664 
-2.869160 11.652568 -17.960941 -37.357025 2.087395 -2.775153 -21.826162 2.491451 6.930836 0.000000 0.000000 0.000000 39.641003 -8.387826 -0.820395 -26.932863 5.550255 5.544523 16.510839 -7.151831 24.961584 -55.614510 19.580240 -25.666233 -45.044361 -37.480682 124.291985 7.889567 21.230179 -61.795097 -7.477267 -15.205953 22.407497 64.582306 -1.822821 77.978302 44.472336 -26.591118 59.320862 14.362440 -42.944019 -71.557617 -51.794151 16.756327 15.180495 30.152649 -0.397204 -1.239840 6.203297 -0.793541 -20.926689 -65.860184 -2.432384 3.634662 46.020512 1.862152 3.683580 16.867680 7.741943 15.078001 
-2.986553 9.228482 -18.518311 -36.079655 1.540144 -3.467905 -22.871164 3.449948 7.102786 0.000000 0.000000 0.000000 40.770157 -9.276218 -0.900662 -28.232744 5.998838 5.400789 17.779465 -10.397994 25.000000 -53.362156 22.244104 -27.132111 -50.612141 -37.408325 120.901558 10.485177 20.299004 -61.364597 -6.896974 -12.584041 22.952271 62.952747 -4.581461 78.002541 43.922138 -29.051779 60.276337 13.262731 -43.497143 -70.984688 -56.942490 18.349319 14.361750 30.413836 -0.543881 -1.298091 6.735818 -1.560444 -20.996647 -70.130432 -1.562978 4.118718 43.073513 3.144720 3.638514 16.805916 7.717619 18.429111 
-3.276613 6.663391 -18.586061 -38.476357 0.429253 -2.578126 -22.216364 3.517558 7.133220 0.000000 0.000000 0.000000 44.256165 -8.641531 -0.899125 -28.296471 6.039447 5.224963 14.594878 -6.768516 24.812202 -56.449127 23.675552 -26.525713 -67.563805 -40.937500 105.764633 6.697217 20.174377 -61.521584 -5.118368 -13.622124 23.278303 64.863205 -7.517187 79.856194 48.677280 -37.560200 61.858509 13.975722 -43.317074 -71.201927 -57.647686 18.929800 14.371189 30.200811 -0.353066 -1.260105 6.375998 -3.535510 -23.149641 -70.350037 -1.991923 3.987601 41.535278 4.211660 3.731629 15.059614 8.259479 23.727676 
